<svg width="26" height="24" viewBox="0 0 26 24" fill="none" xmlns="http://www.w3.org/2000/svg">
<path d="M25 12C25 18.3322 19.6469 23.5 13 23.5C6.35315 23.5 1 18.3322 1 12C1 5.66777 6.35315 0.5 13 0.5C19.6469 0.5 25 5.66777 25 12Z" stroke="white"/>
<path d="M11.5034 10.9286H12.0034V10.4286V8.66812C12.0034 7.83009 12.2814 7.23596 12.7162 6.84619C13.1586 6.4496 13.82 6.21436 14.6716 6.21436C15.223 6.21436 15.7237 6.23786 16.0714 6.26149V7.30174H15.2674C14.7016 7.30174 14.2243 7.42141 13.9071 7.7636C13.5954 8.09985 13.547 8.53784 13.5466 8.88923V8.88969V10.4292V10.9292H14.0466H15.7785L15.6039 12.1637H14.0472H13.5472V12.6637V17.7858H12.0034V12.6632V12.1632H11.5034H9.92857V10.9286H11.5034Z" fill="white" stroke="white"/>
</svg>
