<svg width="26" height="24" viewBox="0 0 26 24" fill="none" xmlns="http://www.w3.org/2000/svg">
<path d="M25 12C25 18.3322 19.6469 23.5 13 23.5C6.35315 23.5 1 18.3322 1 12C1 5.66777 6.35315 0.5 13 0.5C19.6469 0.5 25 5.66777 25 12Z" stroke="white"/>
<rect x="8.31723" y="7.52466" width="9.53982" height="9.11823" rx="1.5" fill="white" stroke="white"/>
<mask id="path-3-inside-1_315_1652" fill="white">
<ellipse cx="16.2837" cy="9.42008" rx="0.691135" ry="0.66349"/>
</mask>
<ellipse cx="16.2837" cy="9.42008" rx="0.691135" ry="0.66349" fill="#333333"/>
<path d="M15.9748 9.42008C15.9748 9.19615 16.1519 9.08357 16.2837 9.08357V11.0836C17.1788 11.0836 17.9748 10.3769 17.9748 9.42008H15.9748ZM16.2837 9.08357C16.4154 9.08357 16.5925 9.19615 16.5925 9.42008H14.5925C14.5925 10.3769 15.3885 11.0836 16.2837 11.0836V9.08357ZM16.5925 9.42008C16.5925 9.64401 16.4154 9.75659 16.2837 9.75659V7.75659C15.3885 7.75659 14.5925 8.46328 14.5925 9.42008H16.5925ZM16.2837 9.75659C16.1519 9.75659 15.9748 9.64401 15.9748 9.42008H17.9748C17.9748 8.46328 17.1788 7.75659 16.2837 7.75659V9.75659Z" fill="#333333" mask="url(#path-3-inside-1_315_1652)"/>
<path d="M14.9336 12.0606C14.9336 12.9344 14.1898 13.6772 13.2289 13.6772C12.268 13.6772 11.5242 12.9344 11.5242 12.0606C11.5242 11.1869 12.268 10.4441 13.2289 10.4441C14.1898 10.4441 14.9336 11.1869 14.9336 12.0606Z" fill="#333333" stroke="#333333"/>
</svg>
