<svg width="168" height="100" viewBox="0 0 168 100" fill="none" xmlns="http://www.w3.org/2000/svg">
<path opacity="0.8" d="M19.8387 51.6775C30.7954 51.6775 39.6775 42.7954 39.6775 31.8388C39.6775 20.8821 30.7954 12 19.8387 12C8.88211 12 0 20.8821 0 31.8388C0 42.7954 8.88211 51.6775 19.8387 51.6775Z" fill="#FC7F03"/>
<path opacity="0.8" d="M50.9995 51.6775C61.9562 51.6775 70.8383 42.7954 70.8383 31.8388C70.8383 20.8821 61.9562 12 50.9995 12C40.0429 12 31.1608 20.8821 31.1608 31.8388C31.1608 42.7954 40.0429 51.6775 50.9995 51.6775Z" fill="#7D08F9"/>
<path opacity="0.8" d="M19.8387 82.6031C30.7954 82.6031 39.6775 73.721 39.6775 62.7643C39.6775 51.8077 30.7954 42.9256 19.8387 42.9256C8.88211 42.9256 0 51.8077 0 62.7643C0 73.721 8.88211 82.6031 19.8387 82.6031Z" fill="#FF43C0"/>
<path opacity="0.8" d="M50.9995 82.6031C61.9562 82.6031 70.8383 73.721 70.8383 62.7643C70.8383 51.8077 61.9562 42.9256 50.9995 42.9256C40.0429 42.9256 31.1608 51.8077 31.1608 62.7643C31.1608 73.721 40.0429 82.6031 50.9995 82.6031Z" fill="#05E5DF"/>
<path d="M59.869 22.1126C60.1714 22.1126 60.4233 22.2133 60.6081 22.3981C60.8097 22.5997 60.8937 22.8517 60.8937 23.1876V40.4898C60.8937 40.7586 60.7929 40.9938 60.6081 41.2122C60.4065 41.4305 60.1714 41.5313 59.869 41.5313H55.9382C55.6358 41.5313 55.4175 41.4641 55.2663 41.3466C55.1487 41.2794 54.9807 41.2794 54.7959 41.2962C54.5943 41.3298 54.3256 41.3802 53.956 41.4809C53.4521 41.6321 52.9313 41.7497 52.3938 41.8169C51.873 41.8841 51.3355 41.9345 50.7979 41.9345C49.4205 41.9345 48.1102 41.6825 46.8671 41.1954C45.6241 40.6914 44.549 40.0027 43.6419 39.1124C42.718 38.2221 41.9957 37.147 41.4581 35.9039C40.9206 34.6608 40.6518 33.2834 40.6518 31.7715C40.6518 30.2933 40.9206 28.9326 41.4581 27.6896C41.9957 26.4465 42.7348 25.3714 43.6419 24.4811C44.5658 23.5908 45.6409 22.9021 46.8671 22.3981C48.0934 21.8942 49.4037 21.659 50.7979 21.659C51.8562 21.659 52.8977 21.827 53.956 22.1629C54.3256 22.2469 54.5943 22.3141 54.7959 22.3477C54.9975 22.3813 55.1487 22.3645 55.2663 22.2973C55.4175 22.1797 55.6358 22.1126 55.9382 22.1126H59.869ZM46.6488 31.7883C46.6488 32.4267 46.7664 32.9978 47.0183 33.5018C47.2535 34.0225 47.5727 34.4425 47.9422 34.812C48.3118 35.1816 48.7486 35.4504 49.2525 35.6184C49.7564 35.8031 50.2772 35.8871 50.8147 35.8871C51.9066 35.8871 52.8473 35.5176 53.6536 34.7952C54.46 34.0729 54.8799 33.065 54.8799 31.7715C54.8799 30.5117 54.4768 29.5206 53.6536 28.8151C52.8473 28.1095 51.8898 27.7568 50.8147 27.7568C50.2772 27.7568 49.7564 27.8408 49.2525 28.0255C48.7486 28.2103 48.3118 28.4623 47.9422 28.8151C47.5727 29.1678 47.2535 29.5878 47.0183 30.0749C46.7664 30.5957 46.6488 31.15 46.6488 31.7883Z" fill="white"/>
<path d="M16.6303 21.9782C16.8487 21.9782 17.0166 22.0454 17.151 22.1797C17.2854 22.3141 17.3526 22.4989 17.3526 22.7341L17.3358 34.0393C17.3358 34.3417 17.3862 34.5433 17.5038 34.644C17.6046 34.7448 17.7558 34.812 17.9238 34.812H29.1954C29.3802 34.812 29.5649 34.8792 29.6993 35.0136C29.8505 35.148 29.9177 35.3328 29.9177 35.5344V41.2962C29.9177 41.5145 29.8505 41.6825 29.6993 41.8169C29.5481 41.9513 29.3802 42.0185 29.1954 42.0185H10.2806C10.0454 42.0185 9.8606 41.9513 9.74301 41.8001C9.60862 41.6489 9.55823 41.4809 9.55823 41.2794L9.57503 22.7173C9.57503 22.4821 9.64222 22.2973 9.77661 22.1629C9.91099 22.0286 10.0958 21.9614 10.2974 21.9614H16.6303V21.9782Z" fill="white"/>
<path d="M23.8871 65.0657C23.8871 64.2258 23.82 63.4362 23.6856 62.6971C23.5512 61.958 23.316 61.3197 23.0136 60.7485C22.6945 60.1942 22.2745 59.7574 21.7538 59.4383C21.233 59.1191 20.5947 58.9679 19.8388 58.9679C19.15 58.9679 18.5453 59.1191 18.0246 59.4047C17.5206 59.6902 17.0838 60.0934 16.7647 60.5973C16.4287 61.1013 16.1767 61.706 16.0256 62.378C15.8576 63.0499 15.7568 63.789 15.74 64.5617V71.701C15.74 71.9698 15.6392 72.2049 15.4544 72.4233C15.2528 72.6417 15.0177 72.7425 14.7153 72.7425H10.7341C10.4317 72.7425 10.1798 72.6417 9.99498 72.4233C9.7934 72.2049 9.70941 71.9698 9.70941 71.701V54.3988C9.70941 54.0628 9.8102 53.8108 9.99498 53.6093C10.1966 53.4077 10.4317 53.3237 10.7341 53.3237H14.7153C15.0177 53.3237 15.2192 53.4077 15.3536 53.5925C15.4712 53.7101 15.6056 53.7437 15.74 53.7101C15.8744 53.6597 16.0256 53.6093 16.2103 53.5589C16.8151 53.3405 17.4198 53.1893 18.0246 53.0549C18.6293 52.9373 19.2508 52.8701 19.8724 52.8701C21.1658 52.8701 22.4089 53.0885 23.6184 53.5421C24.8278 53.9956 25.9029 54.6508 26.8436 55.5075C27.7843 56.3642 28.5571 57.4225 29.1282 58.6991C29.6993 59.959 29.9849 61.3869 29.9849 62.9827V71.701C29.9849 71.9698 29.8841 72.2049 29.6993 72.4233C29.4978 72.6417 29.2626 72.7425 28.9602 72.7425H24.979C24.6767 72.7425 24.4247 72.6417 24.2399 72.4233C24.0383 72.2049 23.9543 71.9698 23.9543 71.701V65.0657H23.8871Z" fill="white"/>
<path d="M40.5846 71.4658V69.1644C40.5846 68.6269 41.3741 68.0725 41.8109 67.5014L47.6399 60.5469C48.0598 60.043 48.2614 59.6734 48.2278 59.455C48.1942 59.2367 47.9758 59.1359 47.5559 59.1359H41.8613C41.5925 59.1359 41.3573 59.0351 41.1389 58.8167C40.9206 58.5983 40.8198 58.3464 40.8198 58.044V54.1636C40.8198 53.8276 40.9206 53.5757 41.1389 53.3741C41.3573 53.1725 41.5925 53.0885 41.8613 53.0885H60.1546C60.4905 53.0885 60.7425 53.1893 60.9273 53.3741C61.1121 53.5757 61.196 53.8276 61.196 54.1636V56.381C61.196 56.6497 61.1457 56.9353 61.0449 57.2377C60.9441 57.54 60.7761 57.8088 60.5745 58.044L54.4264 64.6457L54.4768 64.5953C54.1576 64.9985 53.8384 65.3848 53.5864 65.8384C53.5528 65.9056 53.5192 65.9728 53.5192 66.0568C53.5192 66.2079 53.6368 66.3423 53.7712 66.3927C53.9728 66.4767 54.292 66.4599 54.5103 66.4599H60.4233C60.6921 66.4599 60.9273 66.5607 61.1457 66.7455C61.3472 66.9471 61.4648 67.1822 61.4648 67.4846V71.4658C61.4648 71.7682 61.364 72.0201 61.1457 72.2049C60.9273 72.4065 60.6921 72.4905 60.4233 72.4905H42.214C40.467 72.7257 40.5846 71.4658 40.5846 71.4658Z" fill="white"/>
<path d="M85.5286 44.0573C86.3729 44.0573 87.0573 43.3729 87.0573 42.5286C87.0573 41.6844 86.3729 41 85.5286 41C84.6844 41 84 41.6844 84 42.5286C84 43.3729 84.6844 44.0573 85.5286 44.0573Z" fill="#262261"/>
<path d="M149.816 44.0573C150.66 44.0573 151.344 43.3729 151.344 42.5286C151.344 41.6844 150.66 41 149.816 41C148.971 41 148.287 41.6844 148.287 42.5286C148.287 43.3729 148.971 44.0573 149.816 44.0573Z" fill="#262261"/>
<path d="M146.792 42.0415C129.792 42.0415 112.792 42.0415 95.7924 42.0415C93.3903 42.0415 90.9713 42.0415 88.5692 42.0415C87.9644 42.0415 87.9644 42.9822 88.5692 42.9822C105.569 42.9822 122.569 42.9822 139.569 42.9822C141.971 42.9822 144.39 42.9822 146.792 42.9822C147.38 42.9654 147.38 42.0415 146.792 42.0415Z" fill="#262261"/>
<path d="M85.5286 59.0078C86.3729 59.0078 87.0573 58.3234 87.0573 57.4791C87.0573 56.6349 86.3729 55.9505 85.5286 55.9505C84.6844 55.9505 84 56.6349 84 57.4791C84 58.3234 84.6844 59.0078 85.5286 59.0078Z" fill="#262261"/>
<path d="M149.816 59.0078C150.66 59.0078 151.344 58.3234 151.344 57.4791C151.344 56.6349 150.66 55.9505 149.816 55.9505C148.971 55.9505 148.287 56.6349 148.287 57.4791C148.287 58.3234 148.971 59.0078 149.816 59.0078Z" fill="#262261"/>
<path d="M146.792 56.9919C129.792 56.9919 112.792 56.9919 95.7924 56.9919C93.3903 56.9919 90.9713 56.9919 88.5692 56.9919C87.9644 56.9919 87.9644 57.9326 88.5692 57.9326C105.569 57.9326 122.569 57.9326 139.569 57.9326C141.971 57.9326 144.39 57.9326 146.792 57.9326C147.38 57.9158 147.38 56.9919 146.792 56.9919Z" fill="#262261"/>
<path d="M94.5444 48.7974C94.5444 48.6798 94.5108 48.5622 94.4604 48.4446C94.41 48.3271 94.3261 48.2263 94.2253 48.1255C94.1245 48.0415 93.9901 47.9575 93.8389 47.9071C93.6877 47.8567 93.5029 47.8231 93.3014 47.8231C93.083 47.8231 92.8814 47.8567 92.7302 47.9071C92.579 47.9575 92.4446 48.0415 92.3439 48.1423C92.2431 48.2431 92.1759 48.3439 92.1255 48.4614C92.0751 48.579 92.0583 48.6966 92.0583 48.7974C92.0583 48.999 92.1423 49.167 92.3103 49.2678C92.4782 49.3854 92.6966 49.4693 92.9654 49.5533C93.2342 49.6205 93.5029 49.7045 93.8053 49.7717C94.1077 49.8389 94.3932 49.9397 94.6452 50.0573C94.914 50.1749 95.1324 50.3261 95.3004 50.5276C95.4683 50.7292 95.5523 50.998 95.5523 51.3339C95.5523 51.6531 95.4851 51.9387 95.3507 52.1739C95.2164 52.409 95.0484 52.6274 94.83 52.7954C94.6116 52.9634 94.3764 53.081 94.0909 53.165C93.8221 53.2489 93.5365 53.2825 93.251 53.2825C92.9486 53.2825 92.663 53.2321 92.3943 53.1482C92.1255 53.0642 91.8735 52.9298 91.6719 52.7618C91.4704 52.5938 91.3024 52.3922 91.1848 52.1571C91.0672 51.9219 91 51.6363 91 51.3339C91 51.2836 91.0168 51.2332 91.0672 51.1828C91.1176 51.1324 91.168 51.1156 91.2352 51.1156H91.6383C91.7055 51.1156 91.7559 51.1324 91.8063 51.1828C91.8399 51.2332 91.8735 51.2836 91.8735 51.3339C91.8735 51.4515 91.9071 51.5859 91.9575 51.7203C92.0079 51.8547 92.0919 51.9723 92.2095 52.0899C92.3271 52.2075 92.4614 52.2914 92.6462 52.3586C92.831 52.4258 93.0326 52.4594 93.2846 52.4594C93.5533 52.4594 93.7885 52.4258 93.9565 52.3418C94.1413 52.2579 94.2757 52.1739 94.3932 52.0563C94.494 51.9387 94.578 51.8211 94.6284 51.6867C94.6788 51.5523 94.6956 51.4347 94.6956 51.3171C94.6956 51.1156 94.6116 50.9476 94.4436 50.8468C94.2757 50.7292 94.0573 50.6452 93.8053 50.578C93.5533 50.5108 93.2678 50.4436 92.9654 50.3764C92.663 50.3093 92.3775 50.2253 92.1255 50.1077C91.8735 49.9901 91.6551 49.8221 91.4871 49.6205C91.3192 49.4189 91.2352 49.1502 91.2352 48.7974C91.2352 48.4782 91.3024 48.2095 91.4368 47.9743C91.5711 47.7559 91.7391 47.5711 91.9575 47.42C92.1591 47.2688 92.3943 47.168 92.6462 47.1008C92.8982 47.0336 93.1334 47 93.335 47C93.5701 47 93.8053 47.0336 94.0573 47.1008C94.3093 47.168 94.5276 47.2856 94.7292 47.42C94.9308 47.5711 95.0988 47.7559 95.2332 47.9743C95.3675 48.1927 95.4347 48.4614 95.4347 48.7806C95.4347 48.831 95.4179 48.8814 95.3675 48.9318C95.3171 48.9822 95.2668 48.999 95.1996 48.999H94.7964C94.7292 48.999 94.6788 48.9822 94.6284 48.9318C94.5612 48.8982 94.5444 48.8478 94.5444 48.7974Z" fill="#262261"/>
<path d="M98.8448 47.3696C98.8112 47.3024 98.8112 47.252 98.828 47.1848C98.8448 47.1176 98.8952 47.1008 98.9624 47.1008H99.3319C99.4327 47.1008 99.4999 47.1008 99.5671 47.1176C99.6343 47.1344 99.6679 47.168 99.7015 47.2352L100.995 49.8389C101.045 49.9397 101.096 49.9901 101.146 49.9733C101.197 49.9733 101.23 49.9397 101.264 49.8893L102.591 47.2352C102.624 47.168 102.675 47.1344 102.725 47.1176C102.792 47.1008 102.86 47.1008 102.96 47.1008H103.33C103.397 47.1008 103.448 47.1344 103.464 47.1848C103.481 47.252 103.481 47.3024 103.448 47.3696L101.616 51.0988C101.6 51.1324 101.583 51.166 101.583 51.1996C101.583 51.2332 101.583 51.2668 101.583 51.3004V52.9634C101.583 53.0138 101.566 53.0642 101.516 53.1146C101.465 53.165 101.415 53.1818 101.348 53.1818H100.945C100.877 53.1818 100.827 53.165 100.777 53.1146C100.743 53.0642 100.709 53.0138 100.709 52.9634V51.3004C100.709 51.2332 100.693 51.166 100.676 51.1156L98.8448 47.3696Z" fill="#262261"/>
<path d="M110.184 48.8142C110.184 48.6966 110.15 48.5791 110.1 48.4615C110.049 48.3439 109.965 48.2431 109.864 48.1423C109.764 48.0583 109.629 47.9743 109.478 47.9239C109.327 47.8735 109.142 47.8399 108.941 47.8399C108.722 47.8399 108.521 47.8735 108.369 47.9239C108.218 47.9743 108.084 48.0583 107.983 48.1591C107.882 48.2599 107.815 48.3607 107.765 48.4783C107.714 48.5959 107.697 48.7134 107.697 48.8142C107.697 49.0158 107.781 49.1838 107.949 49.2846C108.117 49.4022 108.336 49.4862 108.605 49.5702C108.873 49.6373 109.142 49.7213 109.444 49.7885C109.747 49.8557 110.032 49.9565 110.284 50.0741C110.553 50.1917 110.772 50.3429 110.94 50.5444C111.107 50.746 111.191 51.0148 111.191 51.3508C111.191 51.6699 111.124 51.9555 110.99 52.1907C110.856 52.4258 110.688 52.6442 110.469 52.8122C110.251 52.9802 110.016 53.0978 109.73 53.1818C109.461 53.2658 109.176 53.2994 108.89 53.2994C108.588 53.2994 108.302 53.249 108.033 53.165C107.765 53.081 107.513 52.9466 107.311 52.7786C107.11 52.6106 106.942 52.4091 106.824 52.1739C106.706 51.9387 106.639 51.6531 106.639 51.3508C106.639 51.3004 106.656 51.25 106.706 51.1996C106.757 51.1492 106.807 51.1324 106.874 51.1324H107.277C107.345 51.1324 107.395 51.1492 107.445 51.1996C107.479 51.25 107.513 51.3004 107.513 51.3508C107.513 51.4683 107.546 51.6027 107.597 51.7371C107.647 51.8715 107.731 51.9891 107.849 52.1067C107.966 52.2243 108.101 52.3083 108.285 52.3755C108.47 52.4427 108.672 52.4762 108.924 52.4762C109.192 52.4762 109.428 52.4426 109.596 52.3587C109.78 52.2747 109.915 52.1907 110.032 52.0731C110.133 51.9555 110.217 51.8379 110.268 51.7035C110.318 51.5691 110.335 51.4516 110.335 51.334C110.335 51.1324 110.251 50.9644 110.083 50.8636C109.915 50.746 109.696 50.662 109.444 50.5948C109.192 50.5276 108.907 50.4605 108.605 50.3933C108.302 50.3261 108.017 50.2421 107.765 50.1245C107.513 50.0069 107.294 49.8389 107.126 49.6373C106.958 49.4358 106.874 49.167 106.874 48.8142C106.874 48.4951 106.942 48.2263 107.076 47.9911C107.21 47.7727 107.378 47.588 107.597 47.4368C107.798 47.2856 108.033 47.1848 108.285 47.1176C108.537 47.0504 108.773 47.0168 108.974 47.0168C109.209 47.0168 109.444 47.0504 109.696 47.1176C109.948 47.1848 110.167 47.3024 110.368 47.4368C110.57 47.588 110.738 47.7727 110.872 47.9911C111.007 48.2095 111.074 48.4783 111.057 48.7974C111.057 48.8478 111.04 48.8982 110.99 48.9486C110.956 48.999 110.889 49.0158 110.822 49.0158H110.419C110.352 49.0158 110.301 48.999 110.251 48.9486C110.2 48.8982 110.184 48.8814 110.184 48.8142Z" fill="#262261"/>
<path d="M114.45 47.3528C114.45 47.2856 114.467 47.2352 114.518 47.2016C114.568 47.1512 114.618 47.1344 114.686 47.1344L118.767 47.1512C118.835 47.1512 118.885 47.168 118.919 47.2184C118.969 47.2688 118.986 47.3192 118.986 47.3696V47.7559C118.986 47.8231 118.969 47.8735 118.919 47.9071C118.868 47.9575 118.818 47.9743 118.767 47.9743H117.34C117.289 47.9743 117.239 47.9911 117.205 48.0415C117.172 48.0751 117.155 48.1255 117.155 48.1759L117.138 53.0474C117.138 53.0978 117.121 53.1482 117.071 53.1986C117.037 53.249 116.97 53.2658 116.903 53.2658H116.5C116.433 53.2658 116.382 53.249 116.332 53.1986C116.298 53.1482 116.265 53.0978 116.265 53.0474L116.281 48.1927C116.281 48.1423 116.265 48.0919 116.231 48.0415C116.197 47.9911 116.147 47.9743 116.097 47.9743H114.652C114.585 47.9743 114.534 47.9575 114.484 47.9071C114.434 47.8567 114.417 47.8063 114.417 47.7559L114.45 47.3528Z" fill="#262261"/>
<path d="M126.444 47.1512C126.511 47.1512 126.562 47.168 126.595 47.2184C126.646 47.2688 126.663 47.3192 126.663 47.3696V47.7559C126.663 47.8231 126.646 47.8735 126.595 47.9071C126.545 47.9575 126.495 47.9743 126.444 47.9743H123.622C123.572 47.9743 123.521 47.9911 123.488 48.0415C123.454 48.0919 123.437 48.1423 123.437 48.1927V49.6877C123.437 49.7549 123.454 49.8053 123.488 49.8557C123.521 49.9061 123.572 49.9229 123.622 49.9229H126.444C126.511 49.9229 126.562 49.9397 126.595 49.9901C126.646 50.0237 126.663 50.0741 126.663 50.1413V50.5276C126.663 50.5948 126.646 50.6452 126.595 50.6788C126.545 50.7124 126.495 50.746 126.444 50.746H123.622C123.572 50.746 123.538 50.7628 123.488 50.7964C123.454 50.83 123.437 50.8804 123.437 50.9308V52.2746C123.437 52.325 123.454 52.3754 123.488 52.409C123.521 52.4426 123.572 52.4594 123.622 52.4594H126.444C126.511 52.4594 126.562 52.4762 126.595 52.5266C126.646 52.5602 126.663 52.6106 126.663 52.6778V53.0642C126.663 53.1314 126.646 53.1818 126.595 53.2154C126.545 53.249 126.495 53.2825 126.444 53.2825H122.816C122.749 53.2825 122.698 53.2658 122.648 53.2154C122.614 53.165 122.581 53.1146 122.581 53.0642L122.597 47.4032C122.597 47.336 122.614 47.2856 122.665 47.2352C122.715 47.2016 122.765 47.168 122.833 47.168L126.444 47.1512Z" fill="#262261"/>
<path d="M131.417 53.0474C131.417 53.0978 131.4 53.1482 131.349 53.1986C131.299 53.249 131.249 53.2658 131.181 53.2658H130.778C130.711 53.2658 130.661 53.249 130.61 53.1986C130.56 53.1482 130.543 53.0978 130.543 53.0474L130.745 47.3864C130.745 47.3192 130.761 47.2688 130.812 47.2184C130.862 47.1848 130.913 47.1512 130.98 47.1512H131.383C131.484 47.1512 131.551 47.2016 131.601 47.3024L133.449 51.5691C133.5 51.6699 133.55 51.7203 133.617 51.6867C133.684 51.6699 133.718 51.6363 133.752 51.6027L135.633 47.3024C135.65 47.252 135.683 47.2184 135.717 47.1848C135.767 47.1512 135.801 47.1344 135.851 47.1344H136.254C136.322 47.1344 136.372 47.1512 136.422 47.2016C136.473 47.2352 136.49 47.3024 136.49 47.3696L136.658 53.0306C136.658 53.081 136.641 53.1314 136.59 53.1818C136.54 53.2322 136.49 53.249 136.422 53.249H136.019C135.952 53.249 135.902 53.2322 135.851 53.1818C135.801 53.1314 135.784 53.081 135.784 53.0306L135.683 49.9397C135.683 49.8389 135.633 49.7885 135.583 49.7885C135.515 49.7885 135.465 49.8389 135.415 49.9397L134.02 53.1314C134.004 53.1818 133.97 53.2154 133.92 53.2322C133.869 53.249 133.819 53.2658 133.752 53.2658H133.449C133.382 53.2658 133.332 53.249 133.281 53.2322C133.231 53.2154 133.197 53.1818 133.18 53.1314L131.769 49.8893C131.736 49.8053 131.685 49.7717 131.618 49.8053C131.551 49.8389 131.517 49.9061 131.501 50.0237L131.417 53.0474Z" fill="#262261"/>
<path d="M143.898 48.8814C143.898 48.7638 143.864 48.6462 143.814 48.5286C143.763 48.411 143.679 48.3103 143.579 48.2095C143.478 48.1255 143.343 48.0415 143.192 47.9911C143.041 47.9407 142.856 47.9071 142.655 47.9071C142.436 47.9071 142.235 47.9407 142.084 47.9911C141.932 48.0415 141.798 48.1255 141.697 48.2263C141.596 48.3271 141.529 48.4278 141.479 48.5454C141.428 48.663 141.412 48.7806 141.412 48.8814C141.412 49.083 141.496 49.251 141.664 49.3517C141.832 49.4693 142.05 49.5533 142.319 49.6373C142.587 49.7045 142.856 49.7885 143.159 49.8557C143.461 49.9229 143.747 50.0237 143.999 50.1413C144.267 50.2588 144.486 50.41 144.654 50.6116C144.822 50.8132 144.906 51.082 144.906 51.4179C144.906 51.7371 144.838 52.0227 144.704 52.2578C144.57 52.493 144.402 52.7114 144.183 52.8794C143.965 53.0474 143.73 53.1649 143.444 53.2489C143.175 53.3329 142.89 53.3665 142.604 53.3665C142.302 53.3665 142.016 53.3161 141.748 53.2321C141.479 53.1482 141.227 53.0138 141.025 52.8458C140.824 52.6778 140.656 52.4762 140.538 52.241C140.42 52.0059 140.353 51.7203 140.353 51.4179C140.353 51.3675 140.37 51.3171 140.42 51.2667C140.471 51.2164 140.521 51.1996 140.588 51.1996H140.992C141.059 51.1996 141.109 51.2164 141.16 51.2667C141.193 51.3171 141.227 51.3675 141.227 51.4179C141.227 51.5355 141.26 51.6699 141.311 51.8043C141.361 51.9387 141.445 52.0563 141.563 52.1739C141.68 52.2914 141.815 52.3754 142 52.4426C142.184 52.5098 142.386 52.5434 142.638 52.5434C142.907 52.5434 143.142 52.5098 143.31 52.4258C143.495 52.3418 143.629 52.2578 143.747 52.1403C143.847 52.0227 143.931 51.9051 143.982 51.7707C144.032 51.6363 144.049 51.5187 144.049 51.4011C144.049 51.1996 143.965 51.0316 143.797 50.9308C143.629 50.8132 143.411 50.7292 143.159 50.662C142.907 50.5948 142.621 50.5276 142.319 50.4604C142.016 50.3932 141.731 50.3093 141.479 50.1917C141.227 50.0741 141.008 49.9061 140.84 49.7045C140.672 49.5029 140.588 49.2342 140.588 48.8814C140.588 48.5622 140.656 48.2935 140.79 48.0583C140.924 47.8399 141.092 47.6551 141.311 47.5039C141.512 47.3528 141.748 47.252 142 47.1848C142.252 47.1176 142.487 47.084 142.688 47.084C142.923 47.084 143.159 47.1176 143.411 47.1848C143.663 47.252 143.881 47.3696 144.083 47.5039C144.284 47.6551 144.452 47.8399 144.586 48.0583C144.721 48.2767 144.788 48.5454 144.788 48.8646C144.788 48.915 144.771 48.9654 144.721 49.0158C144.67 49.0662 144.62 49.083 144.553 49.083H144.15C144.083 49.083 144.032 49.0662 143.982 49.0158C143.915 48.999 143.898 48.9486 143.898 48.8814Z" fill="#262261"/>
</svg>
