<svg width="178" height="228" viewBox="0 0 178 228" fill="none" xmlns="http://www.w3.org/2000/svg">
<path opacity="0.8" d="M50.0491 99.1966C77.4406 99.1966 99.6459 76.9914 99.6459 49.5998C99.6459 22.2082 77.4406 0.00292969 50.0491 0.00292969C22.6575 0.00292969 0.452209 22.2082 0.452209 49.5998C0.452209 76.9914 22.6575 99.1966 50.0491 99.1966Z" fill="#FC7F03"/>
<path opacity="0.8" d="M127.951 99.1966C155.343 99.1966 177.548 76.9914 177.548 49.5998C177.548 22.2082 155.343 0.00292969 127.951 0.00292969C100.559 0.00292969 78.3541 22.2082 78.3541 49.5998C78.3541 76.9914 100.559 99.1966 127.951 99.1966Z" fill="#7D08F9"/>
<path opacity="0.8" d="M50.0491 176.511C77.4406 176.511 99.6459 154.305 99.6459 126.914C99.6459 99.5222 77.4406 77.3169 50.0491 77.3169C22.6575 77.3169 0.452209 99.5222 0.452209 126.914C0.452209 154.305 22.6575 176.511 50.0491 176.511Z" fill="#FF43C0"/>
<path opacity="0.8" d="M127.951 176.511C155.343 176.511 177.548 154.305 177.548 126.914C177.548 99.5222 155.343 77.3169 127.951 77.3169C100.559 77.3169 78.3541 99.5222 78.3541 126.914C78.3541 154.305 100.559 176.511 127.951 176.511Z" fill="#05E5DF"/>
<path d="M150.125 25.2843C150.881 25.2843 151.511 25.5362 151.972 25.9982C152.476 26.5021 152.686 27.1321 152.686 27.972V71.2275C152.686 71.8994 152.434 72.4874 151.972 73.0333C151.469 73.5793 150.881 73.8312 150.125 73.8312H140.298C139.542 73.8312 138.996 73.6632 138.618 73.3693C138.324 73.2013 137.904 73.2013 137.442 73.2433C136.938 73.3273 136.266 73.4533 135.342 73.7052C134.082 74.0832 132.78 74.3772 131.437 74.5452C130.135 74.7131 128.791 74.8391 127.447 74.8391C124.003 74.8391 120.728 74.2092 117.62 72.9913C114.512 71.7314 111.825 70.0096 109.557 67.7839C107.247 65.5581 105.441 62.8704 104.097 59.7627C102.754 56.655 102.082 53.2114 102.082 49.4318C102.082 45.7361 102.754 42.3345 104.097 39.2268C105.441 36.1191 107.289 33.4314 109.557 31.2057C111.867 28.9799 114.554 27.2581 117.62 25.9982C120.686 24.7383 123.961 24.1504 127.447 24.1504C130.093 24.1504 132.696 24.5703 135.342 25.4103C136.266 25.6202 136.938 25.7882 137.442 25.8722C137.946 25.9562 138.324 25.9142 138.618 25.7462C138.996 25.4523 139.542 25.2843 140.298 25.2843H150.125ZM117.074 49.4738C117.074 51.0696 117.368 52.4974 117.998 53.7573C118.586 55.0592 119.384 56.1091 120.308 57.033C121.232 57.9569 122.324 58.6288 123.583 59.0488C124.843 59.5107 126.145 59.7207 127.489 59.7207C130.219 59.7207 132.57 58.7968 134.586 56.991C136.602 55.1852 137.652 52.6654 137.652 49.4318C137.652 46.2821 136.644 43.8043 134.586 42.0405C132.57 40.2767 130.177 39.3948 127.489 39.3948C126.145 39.3948 124.843 39.6048 123.583 40.0667C122.324 40.5287 121.232 41.1586 120.308 42.0405C119.384 42.9224 118.586 43.9723 117.998 45.1902C117.368 46.4921 117.074 47.8779 117.074 49.4738Z" fill="white"/>
<path d="M42.0279 24.9482C42.5738 24.9482 42.9938 25.1162 43.3297 25.4522C43.6657 25.7882 43.8337 26.2501 43.8337 26.838L43.7917 55.1011C43.7917 55.857 43.9177 56.361 44.2117 56.613C44.4636 56.8649 44.8416 57.0329 45.2615 57.0329H73.4406C73.9026 57.0329 74.3645 57.2009 74.7005 57.5369C75.0784 57.8728 75.2464 58.3348 75.2464 58.8387V73.2432C75.2464 73.7892 75.0784 74.2091 74.7005 74.5451C74.3225 74.8811 73.9026 75.049 73.4406 75.049H26.1535C25.5656 75.049 25.1036 74.8811 24.8097 74.5031C24.4737 74.1251 24.3477 73.7052 24.3477 73.2012L24.3897 26.7961C24.3897 26.2081 24.5577 25.7462 24.8937 25.4102C25.2296 25.0742 25.6916 24.9062 26.1955 24.9062H42.0279V24.9482Z" fill="white"/>
<path d="M60.17 132.667C60.17 130.567 60.002 128.593 59.666 126.746C59.3301 124.898 58.7421 123.302 57.9862 121.874C57.1883 120.488 56.1384 119.396 54.8365 118.599C53.5347 117.801 51.9388 117.423 50.049 117.423C48.3272 117.423 46.8154 117.801 45.5135 118.515C44.2536 119.228 43.1618 120.236 42.3638 121.496C41.5239 122.756 40.894 124.268 40.516 125.948C40.0961 127.628 39.8441 129.475 39.8021 131.407V149.255C39.8021 149.927 39.5501 150.515 39.0882 151.061C38.5842 151.607 37.9963 151.859 37.2404 151.859H27.2874C26.5315 151.859 25.9016 151.607 25.4396 151.061C24.9357 150.515 24.7257 149.927 24.7257 149.255V106C24.7257 105.16 24.9776 104.53 25.4396 104.026C25.9435 103.522 26.5315 103.312 27.2874 103.312H37.2404C37.9963 103.312 38.5002 103.522 38.8362 103.984C39.1302 104.278 39.4661 104.362 39.8021 104.278C40.1381 104.152 40.516 104.026 40.978 103.9C42.4898 103.354 44.0017 102.976 45.5135 102.64C47.0254 102.346 48.5792 102.178 50.133 102.178C53.3667 102.178 56.4744 102.724 59.4981 103.858C62.5217 104.992 65.2095 106.63 67.5612 108.772C69.913 110.913 71.8448 113.559 73.2726 116.751C74.7005 119.9 75.4144 123.47 75.4144 127.46V149.255C75.4144 149.927 75.1624 150.515 74.7005 151.061C74.1965 151.607 73.6086 151.859 72.8527 151.859H62.8997C62.1438 151.859 61.5139 151.607 61.0519 151.061C60.548 150.515 60.338 149.927 60.338 149.255V132.667H60.17Z" fill="white"/>
<path d="M101.914 148.667V142.914C101.914 141.57 103.887 140.184 104.979 138.756L119.552 121.37C120.602 120.11 121.106 119.186 121.022 118.64C120.938 118.095 120.392 117.843 119.342 117.843H105.105C104.433 117.843 103.845 117.591 103.3 117.045C102.754 116.499 102.502 115.869 102.502 115.113V105.412C102.502 104.572 102.754 103.942 103.3 103.438C103.845 102.934 104.433 102.724 105.105 102.724H150.839C151.678 102.724 152.308 102.976 152.77 103.438C153.232 103.942 153.442 104.572 153.442 105.412V110.955C153.442 111.627 153.316 112.341 153.064 113.097C152.812 113.853 152.392 114.525 151.888 115.113L136.518 131.617L136.644 131.491C135.846 132.499 135.048 133.465 134.418 134.599C134.334 134.767 134.25 134.935 134.25 135.145C134.25 135.523 134.544 135.859 134.88 135.985C135.384 136.195 136.182 136.153 136.728 136.153H151.51C152.182 136.153 152.77 136.405 153.316 136.867C153.82 137.371 154.114 137.958 154.114 138.714V148.667C154.114 149.423 153.862 150.053 153.316 150.515C152.77 151.019 152.182 151.229 151.51 151.229H105.987C101.62 151.817 101.914 148.667 101.914 148.667Z" fill="white"/>
<path d="M8.64137 190.579C10.752 190.579 12.463 188.868 12.463 186.757C12.463 184.647 10.752 182.936 8.64137 182.936C6.53076 182.936 4.81976 184.647 4.81976 186.757C4.81976 188.868 6.53076 190.579 8.64137 190.579Z" fill="white"/>
<path d="M169.359 190.579C171.469 190.579 173.18 188.868 173.18 186.757C173.18 184.647 171.469 182.936 169.359 182.936C167.248 182.936 165.537 184.647 165.537 186.757C165.537 188.868 167.248 190.579 169.359 190.579Z" fill="white"/>
<path d="M161.799 185.54C119.3 185.54 76.8003 185.54 34.3007 185.54C28.2953 185.54 22.248 185.54 16.2426 185.54C14.7307 185.54 14.7307 187.891 16.2426 187.891C58.7422 187.891 101.242 187.891 143.741 187.891C149.747 187.891 155.794 187.891 161.799 187.891C163.269 187.849 163.269 185.54 161.799 185.54Z" fill="white"/>
<path d="M8.64137 227.955C10.752 227.955 12.463 226.244 12.463 224.134C12.463 222.023 10.752 220.312 8.64137 220.312C6.53076 220.312 4.81976 222.023 4.81976 224.134C4.81976 226.244 6.53076 227.955 8.64137 227.955Z" fill="white"/>
<path d="M169.359 227.955C171.469 227.955 173.18 226.244 173.18 224.134C173.18 222.023 171.469 220.312 169.359 220.312C167.248 220.312 165.537 222.023 165.537 224.134C165.537 226.244 167.248 227.955 169.359 227.955Z" fill="white"/>
<path d="M161.799 222.916C119.3 222.916 76.8003 222.916 34.3007 222.916C28.2953 222.916 22.248 222.916 16.2426 222.916C14.7307 222.916 14.7307 225.267 16.2426 225.267C58.7422 225.267 101.242 225.267 143.741 225.267C149.747 225.267 155.794 225.267 161.799 225.267C163.269 225.225 163.269 222.916 161.799 222.916Z" fill="white"/>
<path d="M30.3951 201.96C30.3951 201.666 30.3111 201.372 30.1851 201.078C30.0591 200.784 29.8492 200.532 29.5972 200.28C29.3452 200.07 29.0092 199.86 28.6313 199.734C28.2533 199.608 27.7914 199.524 27.2874 199.524C26.7415 199.524 26.2375 199.608 25.8596 199.734C25.4816 199.86 25.1457 200.07 24.8937 200.322C24.6417 200.574 24.4737 200.826 24.3477 201.12C24.2217 201.414 24.1798 201.708 24.1798 201.96C24.1798 202.464 24.3897 202.884 24.8097 203.136C25.2296 203.43 25.7756 203.64 26.4475 203.85C27.1194 204.018 27.7914 204.228 28.5473 204.396C29.3032 204.564 30.0171 204.816 30.6471 205.11C31.319 205.403 31.865 205.781 32.2849 206.285C32.7049 206.789 32.9148 207.461 32.9148 208.301C32.9148 209.099 32.7469 209.813 32.4109 210.401C32.0749 210.989 31.655 211.535 31.109 211.955C30.5631 212.375 29.9751 212.669 29.2612 212.879C28.5893 213.089 27.8754 213.173 27.1614 213.173C26.4055 213.173 25.6916 213.047 25.0197 212.837C24.3477 212.627 23.7178 212.291 23.2139 211.871C22.7099 211.451 22.29 210.947 21.996 210.359C21.702 209.771 21.534 209.057 21.534 208.301C21.534 208.175 21.576 208.049 21.702 207.923C21.828 207.797 21.954 207.755 22.122 207.755H23.1299C23.2978 207.755 23.4238 207.797 23.5498 207.923C23.6338 208.049 23.7178 208.175 23.7178 208.301C23.7178 208.595 23.8018 208.931 23.9278 209.267C24.0538 209.603 24.2637 209.897 24.5577 210.191C24.8517 210.485 25.1876 210.695 25.6496 210.863C26.1116 211.031 26.6155 211.115 27.2454 211.115C27.9174 211.115 28.5053 211.031 28.9253 210.821C29.3872 210.611 29.7232 210.401 30.0171 210.107C30.2691 209.813 30.4791 209.519 30.6051 209.183C30.7311 208.847 30.7731 208.553 30.7731 208.259C30.7731 207.755 30.5631 207.335 30.1431 207.083C29.7232 206.789 29.1772 206.579 28.5473 206.411C27.9174 206.243 27.2034 206.075 26.4475 205.907C25.6916 205.739 24.9777 205.529 24.3477 205.236C23.7178 204.942 23.1719 204.522 22.7519 204.018C22.3319 203.514 22.122 202.842 22.122 201.96C22.122 201.162 22.29 200.49 22.6259 199.902C22.9619 199.356 23.3818 198.894 23.9278 198.516C24.4317 198.138 25.0197 197.886 25.6496 197.718C26.2795 197.55 26.8675 197.466 27.3714 197.466C27.9594 197.466 28.5473 197.55 29.1772 197.718C29.8072 197.886 30.3531 198.18 30.8571 198.516C31.361 198.894 31.781 199.356 32.1169 199.902C32.4529 200.448 32.6209 201.12 32.6209 201.918C32.6209 202.044 32.5789 202.17 32.4529 202.296C32.3269 202.422 32.2009 202.464 32.0329 202.464H31.025C30.8571 202.464 30.7311 202.422 30.6051 202.296C30.4371 202.212 30.3951 202.086 30.3951 201.96Z" fill="white"/>
<path d="M41.146 198.39C41.062 198.222 41.062 198.096 41.104 197.928C41.146 197.76 41.272 197.718 41.44 197.718H42.3639C42.6158 197.718 42.7838 197.718 42.9518 197.76C43.1198 197.802 43.2038 197.886 43.2878 198.054L46.5214 204.564C46.6474 204.816 46.7734 204.942 46.8994 204.9C47.0254 204.9 47.1094 204.816 47.1934 204.69L50.511 198.054C50.595 197.886 50.721 197.802 50.847 197.76C51.015 197.718 51.183 197.718 51.4349 197.718H52.3588C52.5268 197.718 52.6528 197.802 52.6948 197.928C52.7368 198.096 52.7368 198.222 52.6528 198.39L48.0753 207.713C48.0333 207.797 47.9913 207.881 47.9913 207.965C47.9913 208.049 47.9913 208.133 47.9913 208.217V212.375C47.9913 212.501 47.9493 212.627 47.8233 212.753C47.6973 212.879 47.5713 212.921 47.4033 212.921H46.3954C46.2275 212.921 46.1015 212.879 45.9755 212.753C45.8915 212.627 45.8075 212.501 45.8075 212.375V208.217C45.8075 208.049 45.7655 207.881 45.7235 207.755L41.146 198.39Z" fill="white"/>
<path d="M69.493 202.002C69.493 201.708 69.409 201.414 69.2831 201.12C69.1571 200.826 68.9471 200.574 68.6951 200.322C68.4431 200.112 68.1072 199.902 67.7292 199.776C67.3513 199.65 66.8893 199.566 66.3854 199.566C65.8394 199.566 65.3355 199.65 64.9575 199.776C64.5795 199.902 64.2436 200.112 63.9916 200.364C63.7396 200.616 63.5717 200.868 63.4457 201.162C63.3197 201.456 63.2777 201.75 63.2777 202.002C63.2777 202.506 63.4877 202.926 63.9076 203.178C64.3276 203.472 64.8735 203.682 65.5454 203.892C66.2174 204.06 66.8893 204.27 67.6452 204.438C68.4011 204.606 69.1151 204.858 69.745 205.152C70.4169 205.445 70.9629 205.823 71.3828 206.327C71.8028 206.831 72.0128 207.503 72.0128 208.343C72.0128 209.141 71.8448 209.855 71.5088 210.443C71.1729 211.031 70.7529 211.577 70.207 211.997C69.661 212.417 69.0731 212.711 68.3592 212.921C67.6872 213.131 66.9733 213.215 66.2594 213.215C65.5034 213.215 64.7895 213.089 64.1176 212.879C63.4457 212.669 62.8157 212.333 62.3118 211.913C61.8078 211.493 61.3879 210.989 61.0939 210.401C60.7999 209.813 60.632 209.099 60.632 208.343C60.632 208.217 60.674 208.091 60.7999 207.965C60.9259 207.839 61.0519 207.797 61.2199 207.797H62.2278C62.3958 207.797 62.5218 207.839 62.6477 207.965C62.7317 208.091 62.8157 208.217 62.8157 208.343C62.8157 208.637 62.8997 208.973 63.0257 209.309C63.1517 209.645 63.3617 209.939 63.6556 210.233C63.9496 210.527 64.2856 210.737 64.7475 210.905C65.2095 211.073 65.7134 211.157 66.3434 211.157C67.0153 211.157 67.6032 211.073 68.0232 210.863C68.4851 210.653 68.8211 210.443 69.1151 210.149C69.367 209.855 69.577 209.561 69.703 209.225C69.829 208.889 69.871 208.595 69.871 208.301C69.871 207.797 69.661 207.377 69.2411 207.125C68.8211 206.831 68.2752 206.621 67.6452 206.453C67.0153 206.285 66.3014 206.117 65.5454 205.949C64.7895 205.781 64.0756 205.571 63.4457 205.277C62.8157 204.984 62.2698 204.564 61.8498 204.06C61.4299 203.556 61.2199 202.884 61.2199 202.002C61.2199 201.204 61.3879 200.532 61.7238 199.944C62.0598 199.398 62.4798 198.936 63.0257 198.558C63.5297 198.18 64.1176 197.928 64.7475 197.76C65.3775 197.592 65.9654 197.508 66.4693 197.508C67.0573 197.508 67.6452 197.592 68.2752 197.76C68.9051 197.928 69.451 198.222 69.955 198.558C70.4589 198.936 70.8789 199.398 71.2149 199.944C71.5508 200.49 71.7188 201.162 71.6768 201.96C71.6768 202.086 71.6348 202.212 71.5088 202.338C71.4248 202.464 71.2569 202.506 71.0889 202.506H70.081C69.913 202.506 69.787 202.464 69.661 202.338C69.535 202.212 69.493 202.17 69.493 202.002Z" fill="white"/>
<path d="M80.1599 198.348C80.1599 198.18 80.2019 198.054 80.3279 197.97C80.4539 197.844 80.5799 197.802 80.7479 197.802L90.9528 197.844C91.1208 197.844 91.2468 197.886 91.3308 198.012C91.4568 198.138 91.4988 198.264 91.4988 198.39V199.356C91.4988 199.524 91.4568 199.65 91.3308 199.734C91.2048 199.86 91.0788 199.902 90.9528 199.902H87.3832C87.2572 199.902 87.1312 199.944 87.0472 200.07C86.9632 200.154 86.9212 200.28 86.9212 200.406L86.8792 212.585C86.8792 212.711 86.8372 212.837 86.7113 212.963C86.6273 213.089 86.4593 213.131 86.2913 213.131H85.2834C85.1154 213.131 84.9894 213.089 84.8634 212.963C84.7795 212.837 84.6955 212.711 84.6955 212.585L84.7375 200.448C84.7375 200.322 84.6955 200.196 84.6115 200.07C84.5275 199.944 84.4015 199.902 84.2755 199.902H80.6639C80.4959 199.902 80.3699 199.86 80.2439 199.734C80.1179 199.608 80.0759 199.482 80.0759 199.356L80.1599 198.348Z" fill="white"/>
<path d="M110.145 197.844C110.313 197.844 110.439 197.886 110.523 198.012C110.649 198.138 110.691 198.264 110.691 198.39V199.356C110.691 199.524 110.649 199.65 110.523 199.734C110.397 199.86 110.271 199.902 110.145 199.902H103.09C102.964 199.902 102.838 199.944 102.754 200.07C102.67 200.196 102.628 200.322 102.628 200.448V204.186C102.628 204.354 102.67 204.48 102.754 204.606C102.838 204.732 102.964 204.774 103.09 204.774H110.145C110.313 204.774 110.439 204.816 110.523 204.942C110.649 205.026 110.691 205.151 110.691 205.319V206.285C110.691 206.453 110.649 206.579 110.523 206.663C110.397 206.747 110.271 206.831 110.145 206.831H103.09C102.964 206.831 102.88 206.873 102.754 206.957C102.67 207.041 102.628 207.167 102.628 207.293V210.653C102.628 210.779 102.67 210.905 102.754 210.989C102.838 211.073 102.964 211.115 103.09 211.115H110.145C110.313 211.115 110.439 211.157 110.523 211.283C110.649 211.367 110.691 211.493 110.691 211.661V212.627C110.691 212.795 110.649 212.921 110.523 213.005C110.397 213.089 110.271 213.173 110.145 213.173H101.074C100.906 213.173 100.78 213.131 100.654 213.005C100.57 212.879 100.486 212.753 100.486 212.627L100.528 198.474C100.528 198.306 100.57 198.18 100.696 198.054C100.822 197.97 100.948 197.886 101.116 197.886L110.145 197.844Z" fill="white"/>
<path d="M122.576 212.585C122.576 212.711 122.534 212.837 122.408 212.963C122.282 213.089 122.156 213.131 121.988 213.131H120.98C120.812 213.131 120.686 213.089 120.56 212.963C120.434 212.837 120.392 212.711 120.392 212.585L120.896 198.432C120.896 198.264 120.938 198.138 121.064 198.012C121.19 197.928 121.316 197.844 121.484 197.844H122.492C122.744 197.844 122.911 197.97 123.037 198.222L127.657 208.889C127.783 209.141 127.909 209.267 128.077 209.183C128.245 209.141 128.329 209.057 128.413 208.973L133.116 198.222C133.158 198.096 133.242 198.012 133.326 197.928C133.452 197.844 133.536 197.802 133.662 197.802H134.67C134.838 197.802 134.964 197.844 135.09 197.97C135.216 198.054 135.258 198.222 135.258 198.39L135.678 212.543C135.678 212.669 135.636 212.795 135.51 212.921C135.384 213.047 135.258 213.089 135.09 213.089H134.082C133.914 213.089 133.788 213.047 133.662 212.921C133.536 212.795 133.494 212.669 133.494 212.543L133.242 204.816C133.242 204.564 133.116 204.438 132.99 204.438C132.822 204.438 132.696 204.564 132.57 204.816L129.085 212.795C129.043 212.921 128.959 213.005 128.833 213.047C128.707 213.089 128.581 213.131 128.413 213.131H127.657C127.489 213.131 127.363 213.089 127.237 213.047C127.111 213.005 127.027 212.921 126.985 212.795L123.457 204.69C123.373 204.48 123.247 204.396 123.079 204.48C122.911 204.564 122.828 204.732 122.786 205.025L122.576 212.585Z" fill="white"/>
<path d="M153.778 202.17C153.778 201.876 153.694 201.582 153.568 201.288C153.442 200.994 153.232 200.742 152.98 200.49C152.728 200.28 152.392 200.07 152.014 199.944C151.637 199.818 151.175 199.734 150.671 199.734C150.125 199.734 149.621 199.818 149.243 199.944C148.865 200.07 148.529 200.28 148.277 200.532C148.025 200.784 147.857 201.036 147.731 201.33C147.605 201.624 147.563 201.918 147.563 202.17C147.563 202.674 147.773 203.094 148.193 203.346C148.613 203.64 149.159 203.85 149.831 204.06C150.503 204.228 151.175 204.438 151.93 204.606C152.686 204.774 153.4 205.025 154.03 205.319C154.702 205.613 155.248 205.991 155.668 206.495C156.088 206.999 156.298 207.671 156.298 208.511C156.298 209.309 156.13 210.023 155.794 210.611C155.458 211.199 155.038 211.745 154.492 212.165C153.946 212.585 153.358 212.879 152.644 213.089C151.972 213.299 151.259 213.383 150.545 213.383C149.789 213.383 149.075 213.257 148.403 213.047C147.731 212.837 147.101 212.501 146.597 212.081C146.093 211.661 145.673 211.157 145.379 210.569C145.085 209.981 144.917 209.267 144.917 208.511C144.917 208.385 144.959 208.259 145.085 208.133C145.211 208.007 145.337 207.965 145.505 207.965H146.513C146.681 207.965 146.807 208.007 146.933 208.133C147.017 208.259 147.101 208.385 147.101 208.511C147.101 208.805 147.185 209.141 147.311 209.477C147.437 209.813 147.647 210.107 147.941 210.401C148.235 210.695 148.571 210.905 149.033 211.073C149.495 211.241 149.999 211.325 150.629 211.325C151.301 211.325 151.888 211.241 152.308 211.031C152.77 210.821 153.106 210.611 153.4 210.317C153.652 210.023 153.862 209.729 153.988 209.393C154.114 209.057 154.156 208.763 154.156 208.469C154.156 207.965 153.946 207.545 153.526 207.293C153.106 206.999 152.56 206.789 151.93 206.621C151.301 206.453 150.587 206.285 149.831 206.117C149.075 205.949 148.361 205.739 147.731 205.445C147.101 205.152 146.555 204.732 146.135 204.228C145.715 203.724 145.505 203.052 145.505 202.17C145.505 201.372 145.673 200.7 146.009 200.112C146.345 199.566 146.765 199.104 147.311 198.726C147.815 198.348 148.403 198.096 149.033 197.928C149.663 197.76 150.251 197.676 150.755 197.676C151.343 197.676 151.93 197.76 152.56 197.928C153.19 198.096 153.736 198.39 154.24 198.726C154.744 199.104 155.164 199.566 155.5 200.112C155.836 200.658 156.004 201.33 156.004 202.128C156.004 202.254 155.962 202.38 155.836 202.506C155.71 202.632 155.584 202.674 155.416 202.674H154.408C154.24 202.674 154.114 202.632 153.988 202.506C153.82 202.464 153.778 202.338 153.778 202.17Z" fill="white"/>
</svg>
